<mxfile host="app.diagrams.net" agent="Mozilla/5.0 (Windows NT 10.0; Win64; x64; rv:133.0) Gecko/20100101 Firefox/133.0" version="24.8.3">
  <diagram name="Page-1" id="OfWzFdM-3niKf9XV6lYJ">
    <mxGraphModel dx="1434" dy="744" grid="1" gridSize="10" guides="1" tooltips="1" connect="1" arrows="1" fold="1" page="1" pageScale="1" pageWidth="827" pageHeight="1169" math="0" shadow="0">
      <root>
        <mxCell id="0" />
        <mxCell id="1" parent="0" />
        <mxCell id="Qjqrx_sU4nBSgB3WsmmQ-17" style="edgeStyle=orthogonalEdgeStyle;rounded=0;orthogonalLoop=1;jettySize=auto;html=1;exitX=0.5;exitY=1;exitDx=0;exitDy=0;entryX=0.5;entryY=0;entryDx=0;entryDy=0;" edge="1" parent="1" source="Qjqrx_sU4nBSgB3WsmmQ-1" target="Qjqrx_sU4nBSgB3WsmmQ-16">
          <mxGeometry relative="1" as="geometry" />
        </mxCell>
        <mxCell id="Qjqrx_sU4nBSgB3WsmmQ-1" value="Start" style="rounded=1;whiteSpace=wrap;html=1;" vertex="1" parent="1">
          <mxGeometry x="381" y="30" width="66" height="30" as="geometry" />
        </mxCell>
        <mxCell id="Qjqrx_sU4nBSgB3WsmmQ-10" style="edgeStyle=orthogonalEdgeStyle;rounded=0;orthogonalLoop=1;jettySize=auto;html=1;exitX=0.5;exitY=1;exitDx=0;exitDy=0;" edge="1" parent="1" source="Qjqrx_sU4nBSgB3WsmmQ-2" target="Qjqrx_sU4nBSgB3WsmmQ-6">
          <mxGeometry relative="1" as="geometry" />
        </mxCell>
        <mxCell id="Qjqrx_sU4nBSgB3WsmmQ-11" style="edgeStyle=orthogonalEdgeStyle;rounded=0;orthogonalLoop=1;jettySize=auto;html=1;exitX=0.5;exitY=1;exitDx=0;exitDy=0;entryX=0.5;entryY=0;entryDx=0;entryDy=0;" edge="1" parent="1" source="Qjqrx_sU4nBSgB3WsmmQ-2" target="Qjqrx_sU4nBSgB3WsmmQ-7">
          <mxGeometry relative="1" as="geometry" />
        </mxCell>
        <mxCell id="Qjqrx_sU4nBSgB3WsmmQ-12" style="edgeStyle=orthogonalEdgeStyle;rounded=0;orthogonalLoop=1;jettySize=auto;html=1;exitX=0.5;exitY=1;exitDx=0;exitDy=0;entryX=0.5;entryY=0;entryDx=0;entryDy=0;" edge="1" parent="1" source="Qjqrx_sU4nBSgB3WsmmQ-2" target="Qjqrx_sU4nBSgB3WsmmQ-8">
          <mxGeometry relative="1" as="geometry" />
        </mxCell>
        <mxCell id="Qjqrx_sU4nBSgB3WsmmQ-13" style="edgeStyle=orthogonalEdgeStyle;rounded=0;orthogonalLoop=1;jettySize=auto;html=1;exitX=0.5;exitY=1;exitDx=0;exitDy=0;" edge="1" parent="1" source="Qjqrx_sU4nBSgB3WsmmQ-2" target="Qjqrx_sU4nBSgB3WsmmQ-9">
          <mxGeometry relative="1" as="geometry" />
        </mxCell>
        <mxCell id="Qjqrx_sU4nBSgB3WsmmQ-2" value="Menu" style="rounded=0;whiteSpace=wrap;html=1;" vertex="1" parent="1">
          <mxGeometry x="374.5" y="160" width="76" height="40" as="geometry" />
        </mxCell>
        <mxCell id="Qjqrx_sU4nBSgB3WsmmQ-22" style="edgeStyle=orthogonalEdgeStyle;rounded=0;orthogonalLoop=1;jettySize=auto;html=1;exitX=0.5;exitY=1;exitDx=0;exitDy=0;entryX=0.5;entryY=0;entryDx=0;entryDy=0;" edge="1" parent="1" source="Qjqrx_sU4nBSgB3WsmmQ-6" target="Qjqrx_sU4nBSgB3WsmmQ-20">
          <mxGeometry relative="1" as="geometry" />
        </mxCell>
        <mxCell id="Qjqrx_sU4nBSgB3WsmmQ-6" value="Option 1" style="rounded=0;whiteSpace=wrap;html=1;" vertex="1" parent="1">
          <mxGeometry x="98.5" y="240" width="60" height="30" as="geometry" />
        </mxCell>
        <mxCell id="Qjqrx_sU4nBSgB3WsmmQ-34" style="edgeStyle=orthogonalEdgeStyle;rounded=0;orthogonalLoop=1;jettySize=auto;html=1;exitX=0.5;exitY=1;exitDx=0;exitDy=0;entryX=0.5;entryY=0;entryDx=0;entryDy=0;" edge="1" parent="1" source="Qjqrx_sU4nBSgB3WsmmQ-7" target="Qjqrx_sU4nBSgB3WsmmQ-33">
          <mxGeometry relative="1" as="geometry" />
        </mxCell>
        <mxCell id="Qjqrx_sU4nBSgB3WsmmQ-7" value="Option 2" style="rounded=0;whiteSpace=wrap;html=1;" vertex="1" parent="1">
          <mxGeometry x="306.5" y="240" width="60" height="30" as="geometry" />
        </mxCell>
        <mxCell id="Qjqrx_sU4nBSgB3WsmmQ-8" value="Option 3" style="rounded=0;whiteSpace=wrap;html=1;" vertex="1" parent="1">
          <mxGeometry x="510" y="240" width="60" height="30" as="geometry" />
        </mxCell>
        <mxCell id="Qjqrx_sU4nBSgB3WsmmQ-15" style="edgeStyle=orthogonalEdgeStyle;rounded=0;orthogonalLoop=1;jettySize=auto;html=1;exitX=0.5;exitY=1;exitDx=0;exitDy=0;entryX=0.5;entryY=0;entryDx=0;entryDy=0;" edge="1" parent="1" source="Qjqrx_sU4nBSgB3WsmmQ-9" target="Qjqrx_sU4nBSgB3WsmmQ-14">
          <mxGeometry relative="1" as="geometry" />
        </mxCell>
        <mxCell id="Qjqrx_sU4nBSgB3WsmmQ-9" value="Option 4" style="rounded=0;whiteSpace=wrap;html=1;" vertex="1" parent="1">
          <mxGeometry x="713" y="240" width="60" height="30" as="geometry" />
        </mxCell>
        <mxCell id="Qjqrx_sU4nBSgB3WsmmQ-14" value="End" style="rounded=1;whiteSpace=wrap;html=1;" vertex="1" parent="1">
          <mxGeometry x="710" y="290" width="66" height="30" as="geometry" />
        </mxCell>
        <mxCell id="Qjqrx_sU4nBSgB3WsmmQ-19" style="edgeStyle=orthogonalEdgeStyle;rounded=0;orthogonalLoop=1;jettySize=auto;html=1;exitX=0.5;exitY=1;exitDx=0;exitDy=0;entryX=0.5;entryY=0;entryDx=0;entryDy=0;" edge="1" parent="1" source="Qjqrx_sU4nBSgB3WsmmQ-16" target="Qjqrx_sU4nBSgB3WsmmQ-2">
          <mxGeometry relative="1" as="geometry" />
        </mxCell>
        <mxCell id="Qjqrx_sU4nBSgB3WsmmQ-16" value="&lt;div style=&quot;line-height: 140%;&quot;&gt;bool running = true&lt;/div&gt;&lt;div style=&quot;line-height: 140%;&quot;&gt;double[] tempList&lt;/div&gt;&lt;div style=&quot;line-height: 140%;&quot;&gt;ConsoleKeyInfo menuInput&lt;br&gt;&lt;/div&gt;" style="rounded=0;whiteSpace=wrap;html=1;" vertex="1" parent="1">
          <mxGeometry x="331" y="80" width="166" height="60" as="geometry" />
        </mxCell>
        <mxCell id="Qjqrx_sU4nBSgB3WsmmQ-25" style="edgeStyle=orthogonalEdgeStyle;rounded=0;orthogonalLoop=1;jettySize=auto;html=1;exitX=0.5;exitY=1;exitDx=0;exitDy=0;entryX=0.5;entryY=0;entryDx=0;entryDy=0;" edge="1" parent="1" source="Qjqrx_sU4nBSgB3WsmmQ-20" target="Qjqrx_sU4nBSgB3WsmmQ-23">
          <mxGeometry relative="1" as="geometry" />
        </mxCell>
        <mxCell id="Qjqrx_sU4nBSgB3WsmmQ-20" value="Let user add element to tempList" style="rounded=0;whiteSpace=wrap;html=1;" vertex="1" parent="1">
          <mxGeometry x="60" y="290" width="137" height="50" as="geometry" />
        </mxCell>
        <mxCell id="Qjqrx_sU4nBSgB3WsmmQ-27" style="edgeStyle=orthogonalEdgeStyle;rounded=0;orthogonalLoop=1;jettySize=auto;html=1;exitX=0.5;exitY=1;exitDx=0;exitDy=0;entryX=0.5;entryY=0;entryDx=0;entryDy=0;" edge="1" parent="1" source="Qjqrx_sU4nBSgB3WsmmQ-23" target="Qjqrx_sU4nBSgB3WsmmQ-26">
          <mxGeometry relative="1" as="geometry" />
        </mxCell>
        <mxCell id="Qjqrx_sU4nBSgB3WsmmQ-28" value="" style="edgeStyle=orthogonalEdgeStyle;rounded=0;orthogonalLoop=1;jettySize=auto;html=1;fillColor=#d5e8d4;strokeColor=#82b366;" edge="1" parent="1" source="Qjqrx_sU4nBSgB3WsmmQ-23" target="Qjqrx_sU4nBSgB3WsmmQ-26">
          <mxGeometry relative="1" as="geometry" />
        </mxCell>
        <mxCell id="Qjqrx_sU4nBSgB3WsmmQ-36" style="edgeStyle=orthogonalEdgeStyle;rounded=0;orthogonalLoop=1;jettySize=auto;html=1;exitX=1;exitY=0.5;exitDx=0;exitDy=0;entryX=0;entryY=0.5;entryDx=0;entryDy=0;fillColor=#f8cecc;strokeColor=#b85450;" edge="1" parent="1" source="Qjqrx_sU4nBSgB3WsmmQ-23" target="Qjqrx_sU4nBSgB3WsmmQ-35">
          <mxGeometry relative="1" as="geometry" />
        </mxCell>
        <mxCell id="Qjqrx_sU4nBSgB3WsmmQ-23" value="Valid input?" style="rhombus;whiteSpace=wrap;html=1;" vertex="1" parent="1">
          <mxGeometry x="85" y="360" width="87" height="60" as="geometry" />
        </mxCell>
        <mxCell id="Qjqrx_sU4nBSgB3WsmmQ-29" style="edgeStyle=orthogonalEdgeStyle;rounded=0;orthogonalLoop=1;jettySize=auto;html=1;exitX=0;exitY=0.5;exitDx=0;exitDy=0;entryX=0;entryY=0.25;entryDx=0;entryDy=0;" edge="1" parent="1" source="Qjqrx_sU4nBSgB3WsmmQ-26" target="Qjqrx_sU4nBSgB3WsmmQ-2">
          <mxGeometry relative="1" as="geometry">
            <mxPoint x="72" y="460" as="sourcePoint" />
            <mxPoint x="366.5" y="170" as="targetPoint" />
            <Array as="points">
              <mxPoint x="42" y="460" />
              <mxPoint x="42" y="170" />
            </Array>
          </mxGeometry>
        </mxCell>
        <mxCell id="Qjqrx_sU4nBSgB3WsmmQ-26" value="Add element to tempList" style="rounded=0;whiteSpace=wrap;html=1;" vertex="1" parent="1">
          <mxGeometry x="80" y="440" width="97" height="40" as="geometry" />
        </mxCell>
        <mxCell id="Qjqrx_sU4nBSgB3WsmmQ-33" value="tempList empty?" style="rhombus;whiteSpace=wrap;html=1;" vertex="1" parent="1">
          <mxGeometry x="266.5" y="290" width="140" height="70" as="geometry" />
        </mxCell>
        <mxCell id="Qjqrx_sU4nBSgB3WsmmQ-37" style="edgeStyle=orthogonalEdgeStyle;rounded=0;orthogonalLoop=1;jettySize=auto;html=1;exitX=0.5;exitY=0;exitDx=0;exitDy=0;entryX=1;entryY=0.5;entryDx=0;entryDy=0;" edge="1" parent="1" source="Qjqrx_sU4nBSgB3WsmmQ-35" target="Qjqrx_sU4nBSgB3WsmmQ-20">
          <mxGeometry relative="1" as="geometry">
            <Array as="points">
              <mxPoint x="210" y="315" />
            </Array>
          </mxGeometry>
        </mxCell>
        <mxCell id="Qjqrx_sU4nBSgB3WsmmQ-35" value="Error" style="rounded=0;whiteSpace=wrap;html=1;" vertex="1" parent="1">
          <mxGeometry x="190" y="375" width="40" height="30" as="geometry" />
        </mxCell>
      </root>
    </mxGraphModel>
  </diagram>
</mxfile>
